<?xml version="1.0" standalone="no"?>
<!DOCTYPE svg PUBLIC "-//W3C//DTD SVG 20010904//EN"
 "http://www.w3.org/TR/2001/REC-SVG-20010904/DTD/svg10.dtd">
<svg version="1.0" xmlns="http://www.w3.org/2000/svg"
 width="225.000000pt" height="225.000000pt" viewBox="0 0 225.000000 225.000000"
 preserveAspectRatio="xMidYMid meet">

<g transform="translate(0.000000,225.000000) scale(0.100000,-0.100000)"
fill="#000000" stroke="none">
<path d="M582 1859 c-172 -29 -326 -122 -412 -249 -101 -149 -114 -319 -38
-479 45 -95 149 -194 258 -248 104 -51 177 -67 300 -66 104 1 167 12 248 44
l52 21 0 54 0 53 -76 -35 c-171 -79 -403 -57 -548 54 -124 93 -182 212 -174
356 6 105 40 179 123 261 74 74 161 118 276 141 80 15 94 15 180 1 208 -35
359 -159 404 -333 12 -45 15 -121 15 -342 l0 -283 48 3 47 3 3 302 c2 298 2
304 -22 372 -66 189 -235 322 -463 366 -85 16 -140 17 -221 4z"/>
<path d="M1565 1670 c-156 -135 -231 -207 -233 -222 -1 -13 1 -40 5 -61 l8
-37 186 162 c102 90 234 204 292 253 58 50 106 93 106 98 1 4 -29 7 -67 7
l-67 0 -230 -200z"/>
<path d="M1935 1808 c-38 -33 -99 -86 -134 -117 -36 -31 -108 -94 -162 -141
-53 -47 -142 -123 -197 -170 l-101 -85 0 -62 c-1 -35 2 -63 5 -63 3 0 76 62
162 137 144 126 298 260 536 467 50 44 93 83 94 88 2 4 -27 8 -65 8 l-68 0
-70 -62z"/>
<path d="M586 1724 c-97 -19 -171 -59 -242 -130 -79 -79 -108 -147 -108 -254
0 -107 29 -175 108 -254 95 -96 196 -137 335 -138 102 -1 174 16 246 56 l60
33 5 62 c3 35 3 64 1 66 -2 2 -24 -13 -50 -34 -63 -53 -120 -80 -190 -89 -125
-17 -235 14 -318 91 -154 141 -114 373 82 471 186 92 406 25 501 -154 17 -31
20 -67 24 -335 l5 -300 48 -1 48 -1 -3 311 -3 311 -29 60 c-57 115 -175 199
-324 230 -86 18 -104 18 -196 -1z"/>
<path d="M1540 1281 c-31 -26 -33 -31 -20 -44 8 -8 122 -108 253 -221 l238
-206 64 1 c63 2 80 10 51 26 -13 7 -111 92 -428 370 -65 57 -119 103 -120 103
-2 0 -19 -13 -38 -29z"/>
<path d="M1432 1187 l-32 -33 57 -51 c32 -28 121 -105 197 -171 l140 -121 68
1 c37 1 68 4 68 7 0 4 -35 36 -78 73 -43 37 -94 81 -113 98 -72 65 -261 225
-268 228 -4 1 -21 -13 -39 -31z"/>
<path d="M444 707 c-2 -7 -3 -89 -2 -182 l3 -170 38 -3 37 -3 0 185 0 186 -35
0 c-20 0 -38 -6 -41 -13z"/>
<path d="M567 714 c-4 -4 -7 -88 -7 -186 l0 -178 39 0 40 0 3 50 3 50 58 -50
c52 -45 64 -50 105 -50 l47 1 -74 68 -75 68 34 29 c19 16 52 46 75 66 l40 37
-47 1 c-42 0 -53 -5 -105 -51 l-58 -51 -5 99 -5 98 -30 3 c-17 2 -34 0 -38 -4z"/>
<path d="M165 605 c-67 -34 -94 -120 -56 -179 39 -58 125 -89 185 -66 20 7 32
8 40 0 5 -5 23 -10 38 -10 l28 0 0 88 c0 101 -16 139 -73 165 -43 21 -122 22
-162 2z m142 -67 c13 -12 23 -33 23 -49 0 -69 -99 -98 -147 -43 -28 31 -29 54
-2 88 27 34 91 37 126 4z"/>
<path d="M894 601 c-102 -62 -97 -179 10 -230 47 -23 81 -26 122 -11 19 8 30
8 38 0 5 -5 23 -10 38 -10 l28 0 0 91 c0 101 -15 135 -70 164 -41 21 -128 19
-166 -4z m144 -64 c28 -26 29 -70 1 -98 -15 -15 -30 -19 -66 -17 -88 6 -111
91 -35 129 38 19 67 15 100 -14z"/>
<path d="M1174 607 c-2 -7 -3 -67 -2 -133 l3 -119 38 -3 37 -3 0 88 c0 91 17
140 45 129 16 -6 35 13 35 36 0 22 -37 24 -67 3 -19 -13 -22 -13 -27 0 -7 18
-55 20 -62 2z"/>
<path d="M1391 603 c-44 -22 -71 -68 -71 -120 0 -83 103 -149 195 -125 24 7
41 7 43 1 2 -5 19 -9 38 -9 l34 0 0 86 c0 93 -11 124 -58 159 -37 27 -135 32
-181 8z m146 -65 c28 -27 30 -67 3 -96 -47 -50 -150 -18 -150 47 0 64 96 97
147 49z"/>
<path d="M1674 607 c-2 -7 -3 -67 -2 -133 l3 -119 35 0 35 0 3 86 c3 103 19
125 83 120 26 -2 39 -47 39 -131 l0 -80 35 0 35 0 0 69 c0 37 5 82 10 98 14
39 48 56 81 39 22 -11 24 -19 29 -106 l5 -95 35 0 35 0 0 108 c0 107 -1 109
-28 133 -36 30 -98 32 -145 4 -32 -20 -32 -20 -52 0 -24 24 -105 27 -137 5
-19 -13 -22 -13 -27 0 -7 19 -65 20 -72 2z"/>
</g>
</svg>
